# xmcd CD database file
#
# Track frame offsets:
#	150
#	33526
#	53611
#	88034
#	115602
#	144733
#	156657
#	182713
#	207231
#
# Disc length: 2966 seconds
#
# Revision: 0
# Processed by: cddbd v1.5.2PL0 Copyright (c) Steve Scherf et al.
# Submitted via: CDex 1.50
#
DISCID=7c0b9409
DTITLE=Vankenhove - Caine - Ballard - Boisseau - Point of views_Alain Vankenhove, Uri Caine, Jeff Ballard, Sébastien Boisseau
DYEAR=2017
DGENRE=Jazz
TTITLE0=Mini Street 
TTITLE1=Délicatesse
TTITLE2=Above Ocean
TTITLE3=Cristal
TTITLE4=Barocco
TTITLE5=Royal Jazz Baby
TTITLE6=Chorale
TTITLE7=Humanity
TTITLE8=Here and now !
EXTD=YEAR: 2017
EXTT0=
EXTT1=
EXTT2=
EXTT3=
EXTT4=
EXTT5=
EXTT6=
EXTT7=
EXTT8=
PLAYORDER=
